<?xml version="1.0" standalone="no"?>
<!DOCTYPE svg PUBLIC "-//W3C//DTD SVG 20010904//EN"
 "http://www.w3.org/TR/2001/REC-SVG-20010904/DTD/svg10.dtd">
<svg version="1.0" xmlns="http://www.w3.org/2000/svg"
 width="2000.000000pt" height="2000.000000pt" viewBox="0 0 2000.000000 2000.000000"
 preserveAspectRatio="xMidYMid meet">
<metadata>
Created by potrace 1.14, written by Peter Selinger 2001-2017
</metadata>
<g transform="translate(0.000000,2000.000000) scale(0.100000,-0.100000)"
fill="#000000" stroke="none">
<path d="M0 10000 l0 -10000 10000 0 10000 0 0 10000 0 10000 -10000 0 -10000
0 0 -10000z m9340 9616 c85 -28 140 -58 177 -96 41 -41 56 -69 92 -164 l26
-71 3 -710 c4 -748 -1 -872 -40 -945 -10 -19 -18 -42 -18 -51 0 -9 -7 -22 -15
-29 -8 -7 -15 -16 -15 -21 0 -14 -93 -119 -105 -119 -3 0 -12 -6 -20 -12 -43
-42 -73 -58 -150 -83 -27 -9 -54 -20 -60 -25 -10 -8 -477 -109 -595 -129 -119
-19 -243 -30 -465 -41 -598 -29 -895 -82 -1232 -220 -418 -171 -797 -542
-1047 -1025 -20 -38 -36 -63 -36 -55 0 8 -13 -7 -29 -35 -54 -96 -66 -115 -75
-115 -4 0 -17 -11 -28 -25 -11 -14 -24 -23 -29 -20 -5 4 -9 2 -9 -3 0 -16 -35
-49 -47 -45 -7 3 -13 0 -13 -7 0 -6 -4 -8 -10 -5 -5 3 -10 1 -10 -6 0 -6 -8
-9 -19 -6 -10 2 -24 1 -31 -3 -6 -4 -28 1 -48 10 -20 10 -40 16 -43 14 -4 -2
-12 16 -19 41 -7 25 -16 42 -21 39 -5 -3 -9 0 -9 6 0 6 -6 18 -14 26 -8 8 -17
45 -21 86 -3 40 -5 847 -3 1793 l3 1720 26 71 c31 82 50 119 81 155 49 57 145
99 268 119 25 4 833 7 1795 6 1670 -1 1753 -2 1805 -20z m9993 1 c98 -29 143
-54 189 -106 58 -65 76 -103 99 -215 18 -87 19 -165 19 -1796 0 -1631 -1
-1709 -19 -1796 -23 -112 -41 -150 -99 -215 -48 -53 -95 -79 -194 -107 -59
-16 -184 -17 -1828 -17 -1644 0 -1769 1 -1828 17 -99 28 -146 54 -194 107 -58
65 -76 103 -99 215 -18 87 -19 165 -19 1796 0 1631 1 1709 19 1796 23 112 41
150 99 215 57 63 136 99 272 122 14 3 813 4 1775 3 1636 -1 1754 -2 1808 -19z
m-7836 -2158 c27 -6 62 -15 78 -20 17 -5 71 -14 120 -20 50 -7 96 -16 103 -22
7 -6 35 -14 63 -18 27 -4 61 -17 76 -28 14 -12 40 -21 57 -21 17 0 58 -14 91
-30 33 -17 77 -33 97 -36 20 -4 45 -15 54 -25 9 -11 29 -19 44 -19 15 0 36
-10 50 -25 14 -14 35 -25 50 -25 15 0 36 -11 50 -26 14 -14 45 -34 69 -45 25
-11 53 -27 63 -36 10 -9 27 -21 37 -27 48 -28 139 -92 162 -115 15 -14 44 -37
65 -51 57 -37 305 -288 334 -339 14 -23 45 -72 70 -107 25 -35 59 -86 75 -115
17 -28 36 -57 43 -65 7 -7 20 -34 28 -59 9 -25 20 -45 25 -45 5 0 14 -21 20
-46 7 -25 18 -48 24 -51 7 -2 16 -15 19 -27 6 -24 72 -76 97 -76 8 0 37 -20
64 -44 26 -24 60 -47 75 -49 15 -3 47 -26 73 -51 25 -25 53 -46 61 -46 8 0 19
-6 23 -14 4 -7 22 -20 38 -29 42 -21 175 -156 191 -193 7 -17 20 -36 28 -44 9
-7 16 -18 16 -26 0 -7 8 -19 18 -26 11 -7 24 -30 31 -50 7 -21 18 -41 25 -45
8 -5 15 -33 18 -64 3 -37 12 -66 26 -84 12 -15 22 -38 22 -50 0 -12 9 -33 19
-47 11 -13 23 -38 27 -54 6 -27 35 -61 90 -107 12 -10 43 -22 70 -27 27 -5 69
-14 94 -20 25 -6 69 -15 98 -20 30 -5 62 -16 71 -24 10 -9 33 -21 51 -28 19
-6 54 -25 78 -42 24 -17 55 -38 69 -47 32 -22 193 -178 193 -188 0 -8 40 -62
80 -109 11 -13 20 -30 20 -39 0 -14 8 -26 68 -102 12 -16 22 -33 22 -38 0 -5
11 -24 25 -43 14 -19 25 -46 25 -62 0 -15 8 -35 18 -45 10 -10 24 -37 30 -59
7 -23 18 -44 26 -47 7 -3 16 -28 20 -55 4 -30 14 -56 26 -67 11 -10 20 -26 20
-36 0 -22 21 -69 30 -69 4 0 11 -25 15 -56 4 -32 14 -63 25 -74 10 -10 20 -41
25 -75 4 -33 14 -64 24 -74 13 -13 20 -42 25 -97 4 -47 13 -86 22 -95 8 -9 19
-44 24 -77 4 -32 15 -72 23 -88 8 -16 17 -71 21 -123 4 -60 13 -110 25 -135
16 -34 20 -76 26 -231 9 -213 8 -328 -1 -365 l-6 -25 -10 25 c-12 32 -34 129
-57 256 -21 118 -26 130 -48 113 -13 -11 -14 -59 -7 -364 8 -386 0 -538 -42
-802 -20 -131 -29 -161 -62 -225 -22 -41 -43 -85 -47 -98 -4 -14 -38 -54 -74
-91 -36 -36 -74 -76 -83 -87 -26 -33 -46 -27 -57 16 -5 20 -14 189 -20 374 -6
186 -14 365 -18 398 -5 54 -8 60 -28 60 -26 0 -85 -61 -85 -88 0 -10 -7 -28
-16 -41 -9 -13 -27 -76 -40 -140 -47 -235 -64 -359 -109 -786 -23 -226 -36
-253 -150 -311 -38 -20 -81 -45 -94 -55 -13 -11 -32 -19 -43 -19 -10 0 -40
-19 -66 -43 -46 -43 -117 -77 -159 -77 -25 0 -73 20 -73 30 0 4 -22 36 -50 71
-83 107 -87 113 -100 154 -7 22 -21 51 -31 64 -11 13 -19 28 -19 34 0 10 -52
130 -100 232 -110 232 -283 785 -336 1075 -8 41 -18 86 -24 100 -5 14 -14 57
-20 95 -6 39 -20 96 -30 128 -11 31 -20 77 -20 102 0 25 -9 71 -19 103 -11 31
-22 89 -26 127 -4 39 -14 85 -21 103 -8 19 -21 77 -29 129 -8 52 -19 102 -24
111 -5 10 -14 60 -21 112 -7 52 -18 111 -26 130 -7 19 -18 84 -24 143 -6 60
-16 120 -21 135 -6 15 -15 86 -20 159 -5 72 -14 151 -20 175 -6 24 -14 65 -19
92 -5 27 -18 59 -30 71 -11 12 -20 27 -20 33 0 7 -7 15 -15 18 -9 4 -20 15
-26 26 -11 20 -9 21 84 103 9 8 26 15 36 15 11 0 45 29 80 68 50 55 60 72 56
93 -4 17 0 30 10 39 9 7 15 28 15 51 0 28 4 39 15 39 9 0 19 17 26 45 6 24 17
50 25 56 8 6 14 17 14 24 0 7 9 24 20 38 11 14 20 36 20 50 0 14 9 54 20 89
25 80 25 152 1 220 -11 29 -23 79 -26 110 -4 32 -11 60 -16 63 -5 4 -9 19 -9
34 0 15 -5 32 -10 37 -6 6 -13 34 -17 63 -5 46 -8 52 -27 49 -19 -3 -22 -12
-27 -93 -6 -80 -31 -240 -45 -287 -3 -11 -15 -18 -31 -18 -19 0 -55 30 -149
125 -67 69 -127 125 -132 125 -6 0 -34 23 -63 51 -30 28 -70 62 -91 75 -20 13
-39 28 -43 34 -3 5 -31 26 -62 46 -31 19 -110 89 -177 154 -175 172 -289 253
-499 357 -73 35 -139 68 -147 74 -8 5 -26 14 -40 20 -14 6 -43 19 -65 29 -121
56 -137 62 -300 120 -389 136 -752 112 -1010 -68 -132 -92 -249 -254 -327
-452 -21 -52 -42 -104 -47 -115 -5 -11 -23 -67 -40 -125 -28 -98 -44 -168
-107 -460 -38 -175 -83 -347 -110 -425 -30 -84 -133 -299 -146 -304 -5 -1 -20
-20 -33 -42 -26 -40 -156 -157 -215 -193 -30 -18 -48 -20 -130 -18 -71 2 -115
-2 -175 -18 -122 -31 -145 -39 -215 -75 -59 -31 -106 -50 -255 -105 -76 -28
-195 -50 -323 -59 -96 -8 -134 -6 -226 10 -141 24 -204 48 -303 112 -70 47
-183 152 -183 171 0 4 -8 18 -18 31 -18 23 -64 157 -118 345 -29 99 -108 263
-177 365 -123 183 -264 313 -400 367 -61 25 -100 50 -144 92 -29 26 -33 36
-33 81 0 111 72 181 199 192 201 19 399 -109 562 -362 146 -227 236 -337 343
-416 43 -33 84 -59 89 -59 6 0 18 -6 26 -14 16 -14 48 -19 104 -17 23 1 27 5
27 31 0 45 -17 71 -77 120 -74 61 -248 241 -304 315 -88 116 -184 244 -231
307 -133 179 -261 292 -413 367 -108 53 -142 66 -197 80 -27 6 -69 17 -95 24
-27 6 -92 11 -148 10 -98 -2 -102 -4 -192 -50 -88 -45 -95 -50 -160 -140 -55
-76 -70 -104 -80 -155 -7 -35 -20 -80 -29 -101 -15 -33 -16 -48 -5 -139 13
-101 26 -138 84 -232 32 -51 96 -77 170 -69 74 7 92 -14 117 -143 43 -214 58
-303 65 -389 4 -49 12 -128 19 -175 11 -69 11 -88 0 -100 -7 -8 -16 -28 -20
-45 -4 -16 -38 -91 -76 -165 -38 -74 -87 -182 -109 -240 -89 -235 -183 -441
-215 -471 l-22 -20 -5 33 c-2 18 0 146 7 283 12 271 15 590 5 600 -15 14 -59
-19 -64 -49 -44 -256 -54 -361 -54 -578 -1 -103 -6 -220 -11 -260 -6 -40 -15
-152 -20 -248 -5 -96 -14 -197 -20 -225 -6 -27 -16 -99 -21 -160 -5 -60 -16
-128 -25 -150 -9 -22 -19 -78 -24 -125 -5 -47 -15 -110 -24 -140 -9 -30 -16
-69 -16 -87 0 -38 -4 -39 -120 -48 -51 -5 -100 -15 -122 -26 -44 -23 -180 -39
-330 -39 -104 0 -107 -1 -128 -27 -29 -37 -46 -80 -55 -134 -3 -24 -11 -59
-17 -77 -14 -45 5 -116 42 -163 16 -20 32 -52 35 -72 8 -41 -20 -199 -40 -232
-7 -11 -18 -68 -23 -128 -9 -91 -14 -110 -32 -125 -13 -11 -23 -33 -27 -60
l-6 -43 -25 43 c-14 24 -42 66 -62 93 -20 28 -43 68 -51 90 -28 84 -50 86 -76
9 l-19 -56 -32 51 c-26 39 -35 66 -41 123 -5 40 -16 90 -24 111 -9 21 -21 73
-26 116 -6 42 -17 98 -25 123 -9 25 -22 79 -30 121 -8 42 -21 86 -30 99 -8 13
-19 42 -25 64 -8 31 -18 43 -34 48 -13 3 -34 14 -46 26 -21 18 -22 23 -11 49
6 16 9 39 5 50 -6 21 -1 34 53 125 21 35 97 116 110 116 9 0 46 30 87 70 14
13 34 20 62 20 25 0 50 7 66 20 21 17 40 20 129 20 115 0 135 8 161 62 8 18
18 62 22 98 4 35 14 74 21 85 8 12 19 57 26 100 7 44 17 86 24 92 7 7 15 36
19 65 4 29 14 66 22 81 7 15 32 104 53 197 22 94 44 179 50 190 6 11 15 59 19
107 5 49 18 117 30 152 12 35 21 79 21 98 0 19 5 43 10 53 15 28 40 168 40
223 0 27 9 86 20 131 39 158 56 265 69 426 6 69 19 158 31 197 11 40 20 95 20
122 0 28 6 62 12 77 10 22 10 28 0 32 -18 6 -15 26 7 39 15 9 20 29 26 95 5
62 12 88 26 101 14 13 19 32 19 71 0 44 4 56 26 75 24 21 26 28 21 72 -6 44
-4 51 18 65 18 12 25 25 25 49 0 24 7 37 25 49 18 12 25 25 25 50 0 25 7 38
26 51 21 14 25 22 20 45 -4 22 0 32 19 44 18 12 25 26 25 47 0 25 10 41 50 77
41 37 50 51 50 79 0 18 4 33 9 33 11 0 112 104 126 131 11 19 173 185 228 232
81 70 139 109 185 125 18 6 45 20 59 32 14 11 34 20 44 20 10 0 26 8 36 19 11
11 38 21 69 24 28 3 68 15 90 25 28 14 68 21 144 25 72 4 119 12 150 25 35 15
79 21 198 26 115 5 160 11 178 22 20 14 58 16 235 15 189 0 214 -2 242 -20 55
-33 128 -44 194 -31 32 7 67 20 78 30 23 20 78 40 110 40 13 0 28 7 35 15 7 8
20 15 29 15 9 0 39 11 66 25 29 14 68 25 93 25 23 0 68 11 100 24 35 14 90 26
142 31 47 4 91 12 99 18 13 11 214 30 301 28 25 -1 61 3 80 8 19 5 64 15 98
22 48 9 72 20 98 44 18 17 70 53 115 80 45 26 96 63 114 81 19 18 45 36 59 40
14 3 30 12 36 19 7 8 28 19 48 26 20 6 46 20 58 30 11 10 42 22 70 25 27 4 56
12 64 19 8 7 42 18 74 24 33 6 66 17 75 25 9 7 54 19 101 27 47 7 99 19 115
26 39 16 592 18 662 2z m-80 -1500 c75 -20 270 -95 323 -125 14 -7 45 -23 70
-34 25 -12 63 -32 85 -45 22 -14 55 -32 74 -41 18 -8 45 -23 60 -33 77 -52
108 -71 119 -71 24 0 250 -166 357 -262 56 -49 145 -141 145 -149 0 -4 21 -34
48 -66 26 -32 59 -76 73 -98 14 -22 34 -53 45 -69 65 -99 171 -292 251 -456
82 -169 89 -188 97 -255 6 -48 4 -52 -22 -67 -27 -16 -30 -16 -78 11 -45 27
-138 118 -192 189 -12 17 -26 50 -31 74 -12 53 -36 124 -56 160 -8 14 -15 34
-15 43 0 18 -49 110 -82 155 -88 119 -155 196 -282 323 -82 81 -152 147 -156
147 -8 0 -70 47 -113 85 -15 14 -36 25 -46 25 -10 0 -26 9 -35 19 -10 10 -33
22 -53 26 -20 3 -42 12 -49 19 -7 7 -40 16 -74 19 -33 4 -69 11 -79 17 -31 16
-250 33 -346 27 -132 -9 -256 -41 -371 -97 -285 -138 -453 -365 -599 -810 -15
-47 -36 -101 -46 -120 -11 -19 -22 -49 -25 -67 -4 -19 -17 -39 -31 -49 -22
-14 -29 -14 -50 -3 l-25 13 5 206 c3 113 10 243 16 290 13 99 60 320 71 335 5
6 13 30 20 55 58 219 265 494 459 609 64 38 176 81 241 94 51 9 222 -4 297
-24z m483 -887 c25 -6 78 -13 118 -17 42 -4 75 -12 80 -20 4 -7 39 -17 77 -23
87 -13 145 -33 145 -50 0 -7 11 -17 25 -22 14 -5 25 -14 25 -19 0 -5 8 -12 19
-16 10 -3 52 -40 94 -83 116 -117 236 -282 270 -370 15 -38 16 -46 2 -71 -27
-53 -76 -52 -305 4 -83 21 -187 38 -270 45 -172 15 -265 33 -532 104 -256 67
-406 78 -608 44 -111 -18 -302 -95 -411 -164 -43 -27 -79 -23 -79 10 1 118
114 280 296 422 45 35 85 64 90 64 4 0 15 6 23 13 29 24 154 71 183 69 16 -1
39 5 52 13 13 9 30 13 38 10 14 -5 132 7 233 25 28 5 75 13 105 19 30 5 66 14
80 19 30 12 187 8 250 -6z m18 -687 c134 -5 155 -8 172 -25 15 -15 34 -20 71
-20 28 0 71 -9 97 -20 45 -19 104 -36 167 -47 17 -3 39 -12 50 -19 11 -8 29
-14 41 -14 11 0 42 -11 68 -25 26 -14 62 -25 80 -25 19 0 40 -8 50 -19 9 -10
35 -21 57 -24 22 -3 57 -16 77 -30 20 -14 57 -28 81 -31 24 -4 57 -18 73 -31
16 -14 36 -25 44 -25 8 0 41 -13 74 -30 33 -16 67 -30 77 -30 10 0 44 -31 75
-68 l56 -68 13 -105 c7 -60 19 -111 27 -121 10 -12 16 -52 20 -135 3 -94 8
-122 22 -138 13 -15 20 -46 25 -120 5 -74 11 -105 25 -120 13 -15 19 -45 24
-125 4 -73 11 -108 21 -116 9 -7 16 -42 21 -115 5 -79 11 -109 24 -124 13 -14
20 -45 25 -105 4 -47 14 -98 22 -115 8 -16 18 -67 22 -112 4 -54 12 -87 23
-100 12 -13 19 -47 24 -121 4 -59 12 -109 19 -116 7 -6 17 -53 23 -103 6 -51
19 -107 28 -125 10 -19 19 -66 22 -108 3 -51 11 -83 23 -100 13 -17 20 -49 23
-100 5 -87 2 -75 22 -95 9 -9 19 -42 23 -73 4 -31 14 -68 23 -82 9 -14 18 -56
22 -93 3 -43 13 -81 26 -102 13 -21 20 -50 20 -82 0 -34 6 -58 19 -75 13 -15
21 -46 24 -88 3 -36 8 -78 12 -93 5 -20 3 -33 -9 -46 -9 -10 -25 -49 -36 -87
-11 -38 -27 -74 -35 -80 -10 -7 -15 -28 -15 -59 0 -32 -6 -55 -17 -68 -10 -10
-23 -42 -30 -70 -14 -62 -48 -169 -70 -217 -17 -37 -31 -199 -32 -358 -2 -174
-39 -205 -249 -206 l-127 -1 -27 55 c-16 31 -26 66 -24 80 3 16 -9 49 -35 93
l-39 69 0 152 c0 132 3 156 20 189 11 20 20 48 20 61 0 46 13 88 29 94 9 3 27
14 40 24 13 10 36 18 51 18 36 0 80 61 80 111 0 18 9 48 20 64 17 25 20 47 20
142 0 129 -1 130 -93 140 -29 3 -59 12 -69 20 -9 8 -25 13 -35 12 -24 -3 -75
11 -93 26 -8 7 -33 15 -55 17 -37 5 -87 24 -125 47 -51 31 -192 91 -201 86 -9
-6 -55 10 -101 35 -10 6 -30 10 -46 10 -15 0 -32 4 -38 10 -5 5 -43 14 -84 21
-41 6 -88 17 -105 24 -34 15 -137 37 -157 34 -7 -2 -36 5 -65 14 -29 8 -85 19
-125 23 -40 3 -81 11 -90 15 -23 12 -165 39 -206 39 -18 0 -43 5 -55 11 -22
12 -134 27 -242 33 -33 1 -78 10 -101 19 -25 10 -99 19 -195 26 -85 5 -181 15
-214 22 -42 9 -171 13 -430 13 -332 1 -374 -1 -409 -16 -21 -10 -46 -18 -56
-18 -26 0 -127 -55 -178 -97 -24 -20 -52 -55 -62 -77 -20 -48 -78 -103 -117
-112 -18 -5 -49 1 -90 15 -34 12 -67 20 -72 17 -9 -6 -52 0 -251 34 -31 6 -91
19 -135 30 -43 11 -98 20 -122 20 -24 0 -53 5 -63 10 -18 9 -181 30 -238 30
-13 0 -33 7 -45 15 -12 9 -43 15 -73 15 -69 0 -104 27 -104 78 0 20 -7 50 -15
65 -8 15 -12 34 -9 41 15 39 -188 246 -240 246 -12 0 -37 11 -56 25 -19 14
-41 25 -51 25 -9 0 -27 8 -40 18 -13 10 -51 26 -84 35 -33 9 -80 22 -105 30
-87 29 -195 57 -217 57 -13 0 -49 8 -80 19 -32 10 -94 26 -138 35 -44 9 -123
25 -175 37 -114 25 -172 36 -265 49 -38 6 -90 15 -115 21 -25 6 -107 18 -183
27 -112 14 -138 20 -143 34 -3 9 -14 20 -25 23 -25 8 -24 19 11 125 17 50 30
95 30 101 0 17 42 69 125 153 111 112 161 153 204 167 20 6 46 18 58 25 37 23
169 37 282 29 106 -7 115 -10 261 -77 63 -29 205 -119 225 -143 6 -6 51 -46
100 -87 50 -42 141 -128 203 -191 89 -91 122 -119 159 -131 71 -24 94 -21 134
20 32 34 34 39 38 120 3 78 1 88 -23 122 -14 21 -26 43 -26 49 0 15 -281 290
-360 352 -114 89 -291 204 -389 252 -126 62 -220 86 -361 93 -103 5 -123 3
-193 -19 -43 -13 -85 -29 -93 -35 -7 -7 -28 -16 -46 -20 -60 -15 -140 -47
-148 -60 -15 -24 -22 10 -15 68 14 113 56 272 125 467 39 108 80 245 105 345
15 58 40 138 56 178 16 41 29 82 29 93 0 10 4 19 9 19 5 0 11 13 14 30 4 16
14 36 24 45 10 8 33 28 51 44 43 38 116 55 195 46 114 -12 155 -32 230 -108
37 -38 74 -82 82 -98 8 -15 28 -48 45 -72 16 -24 43 -82 60 -128 41 -113 153
-339 179 -363 12 -11 21 -23 21 -28 0 -21 145 -202 190 -237 101 -80 207 -124
400 -166 41 -9 89 -20 105 -25 36 -11 136 -5 185 9 19 6 67 11 107 11 39 0 84
5 100 11 15 6 55 10 88 10 83 0 258 26 332 50 35 11 120 56 190 100 122 76
139 91 380 337 139 141 255 264 258 272 7 20 71 60 95 60 16 0 19 5 14 28 -4
24 1 30 41 54 25 15 45 34 45 42 0 8 25 29 54 46 30 17 58 40 61 50 4 11 10
20 15 20 5 0 24 13 42 29 18 15 53 38 78 51 25 12 54 30 65 40 30 26 216 119
256 127 18 3 56 15 84 26 72 28 359 58 480 51 28 -2 119 -6 203 -9z m3919
-2460 c1 -140 -2 -257 -6 -260 -23 -14 -28 26 -19 150 7 89 6 153 -1 203 -15
97 -14 159 2 165 6 2 14 2 17 0 2 -2 6 -119 7 -258z m-9670 -128 l42 -11 -29
-18 c-30 -18 -62 -72 -74 -123 -16 -75 -136 -456 -169 -535 -7 -19 -22 -57
-31 -83 -14 -37 -26 -51 -54 -65 -35 -16 -38 -21 -50 -87 -8 -39 -15 -79 -18
-91 -2 -11 -25 -46 -51 -77 -26 -31 -68 -84 -92 -118 -43 -59 -45 -61 -54 -38
-16 42 -17 268 -1 326 8 28 13 80 13 115 -1 34 4 76 10 91 6 16 11 42 11 58 0
17 5 40 12 52 7 12 11 34 9 48 -1 14 4 43 13 65 8 21 17 61 20 87 3 27 12 61
20 75 7 15 26 54 41 87 15 33 31 67 36 75 5 8 17 29 27 45 9 17 38 51 63 78
39 40 52 47 85 48 21 0 48 4 59 9 22 11 98 5 162 -13z m543 -17 c19 -10 222
-32 284 -31 16 0 47 -8 70 -18 27 -12 79 -21 151 -25 71 -5 118 -12 133 -22
13 -8 64 -20 115 -25 51 -6 104 -16 118 -24 14 -8 59 -18 101 -23 41 -6 86
-17 99 -25 13 -8 51 -21 84 -28 33 -7 67 -18 75 -24 21 -17 78 -35 109 -35 15
0 31 -8 39 -20 7 -11 18 -20 25 -20 6 0 35 -12 62 -25 28 -14 56 -25 62 -25 7
0 19 -13 28 -29 15 -31 22 -39 74 -84 l32 -28 -4 -110 c-3 -60 -7 -113 -11
-116 -3 -4 -6 0 -6 7 0 7 -9 43 -20 79 l-20 67 -100 -4 c-87 -4 -104 -2 -121
14 -15 13 -22 15 -31 6 -19 -19 -54 -14 -135 18 -41 17 -84 30 -95 30 -11 0
-57 18 -102 39 -51 24 -105 42 -142 46 -32 4 -81 13 -108 21 -56 16 -180 18
-276 4 -228 -33 -269 -40 -305 -53 -22 -8 -60 -19 -85 -25 -102 -24 -211 -87
-271 -158 -24 -29 -54 -57 -67 -63 -38 -18 -38 -16 -12 291 15 173 -3 298 -52
358 -20 25 -95 60 -131 62 -22 1 -15 4 23 9 75 10 386 2 410 -11z m676 -677
c42 -35 43 -57 3 -128 -26 -46 -37 -56 -71 -66 -115 -30 -213 61 -178 167 15
44 35 53 133 53 71 1 81 -2 113 -26z m-564 -199 c-26 -76 -37 -255 -22 -354 6
-41 24 -103 40 -138 25 -54 35 -66 70 -79 22 -9 40 -19 40 -24 0 -10 106 -69
123 -69 8 0 25 -8 38 -19 13 -10 39 -22 57 -26 18 -4 36 -13 38 -20 3 -7 25
-18 48 -24 24 -6 49 -17 56 -26 7 -8 23 -15 37 -15 13 0 34 -11 46 -23 31 -33
62 -39 91 -16 13 10 32 19 41 19 9 0 40 8 68 17 l52 18 -70 7 c-104 12 -135
24 -135 54 0 18 8 27 28 34 15 6 36 15 47 21 117 69 224 107 237 87 16 -26
-21 -93 -74 -136 -15 -13 -26 -28 -23 -33 10 -15 42 -10 61 9 10 9 37 31 61
48 66 47 150 129 169 166 9 18 24 42 33 54 9 11 34 78 56 147 50 160 56 163
137 77 32 -34 58 -68 58 -76 0 -7 8 -19 18 -26 10 -7 32 -34 49 -59 l31 -47
-17 -38 c-10 -22 -23 -61 -30 -89 -14 -53 -23 -77 -65 -166 -14 -31 -26 -69
-26 -86 0 -16 -11 -44 -25 -63 -14 -19 -25 -42 -25 -51 0 -23 -119 -142 -173
-173 -23 -13 -62 -27 -86 -31 -24 -4 -59 -14 -78 -22 -46 -19 -428 -17 -488 2
-22 7 -92 18 -155 24 -63 7 -158 21 -210 31 -52 10 -126 24 -165 29 -38 6
-110 20 -160 30 -49 11 -117 25 -150 32 -33 6 -74 18 -92 25 -17 8 -41 14 -53
14 -12 0 -29 4 -39 10 -10 5 -50 16 -90 24 -39 8 -83 24 -96 34 -14 11 -50 23
-81 27 -68 8 -56 21 24 24 31 1 75 6 97 11 22 5 57 10 78 10 48 0 98 23 116
52 10 16 15 65 18 158 7 259 10 305 22 343 7 21 11 47 8 58 -9 36 43 43 90 12
21 -14 25 -13 57 10 18 15 37 39 41 54 3 15 25 48 47 73 21 25 54 65 72 90 19
27 52 56 84 73 29 16 53 34 54 40 1 7 3 -4 5 -24 2 -20 -5 -63 -15 -95z m4650
114 c-8 -8 -17 -8 -34 0 -22 10 -21 11 12 11 26 1 31 -2 22 -11z m781 5 c-7
-2 -21 -2 -30 0 -10 3 -4 5 12 5 17 0 24 -2 18 -5z m-391 -43 c17 0 27 -4 23
-10 -7 -11 -156 -13 -195 -3 l-25 7 25 8 c14 4 52 5 84 3 32 -3 72 -5 88 -5z
m595 -6 c-3 -3 -12 -4 -19 -1 -8 3 -5 6 6 6 11 1 17 -2 13 -5z m-374 -41 c31
-8 12 -28 -31 -31 -48 -4 -128 16 -116 28 18 18 91 19 147 3z m-3240 -20 c16
-8 53 -14 85 -13 66 2 234 -15 307 -30 28 -6 87 -14 132 -19 45 -5 98 -14 117
-20 20 -6 52 -16 71 -22 20 -6 61 -13 91 -16 71 -8 75 -18 60 -151 -8 -77 -15
-106 -27 -113 -14 -7 -18 -34 -24 -141 -4 -73 -10 -160 -13 -193 -7 -96 -4
-430 5 -555 7 -91 13 -122 31 -150 12 -19 22 -42 22 -50 0 -8 11 -28 25 -44
14 -16 25 -32 25 -36 0 -14 117 -128 137 -134 12 -4 24 -13 27 -21 3 -8 18
-15 34 -15 17 0 37 -10 51 -24 16 -17 38 -25 79 -30 31 -4 68 -13 82 -21 23
-13 36 -19 95 -44 46 -19 94 -31 126 -31 19 0 43 -6 54 -13 11 -7 58 -19 105
-26 122 -18 180 -30 222 -48 20 -9 43 -13 50 -11 15 6 141 -14 238 -37 36 -8
99 -18 140 -21 41 -3 93 -12 115 -19 22 -8 85 -17 139 -20 60 -4 112 -13 130
-22 22 -11 78 -19 186 -25 85 -5 187 -16 225 -26 101 -25 670 -26 688 -1 8 10
34 18 71 22 46 5 71 14 114 43 82 57 112 89 112 118 0 14 4 26 9 26 20 0 41
33 41 66 0 29 3 34 24 34 13 0 26 7 30 15 9 25 42 17 70 -16 l26 -31 15 36 c8
19 15 47 15 60 0 16 9 32 24 41 14 9 29 28 35 43 11 31 85 112 102 112 18 0
272 -82 291 -94 31 -19 48 -70 48 -145 0 -77 -8 -118 -51 -261 -16 -53 -35
-127 -43 -165 -19 -88 -110 -359 -132 -393 -9 -13 -27 -56 -40 -95 -13 -39
-30 -80 -37 -91 -8 -12 -20 -39 -27 -61 -7 -22 -35 -83 -62 -135 -26 -52 -53
-111 -59 -130 -7 -19 -20 -47 -30 -62 -11 -14 -19 -30 -19 -35 0 -7 -41 -89
-84 -168 -9 -16 -16 -34 -16 -38 0 -5 -14 -28 -31 -53 -16 -24 -37 -59 -45
-77 -17 -38 -7 -22 -166 -261 -70 -105 -140 -207 -155 -228 -15 -20 -42 -56
-60 -80 -119 -162 -369 -415 -453 -458 -14 -7 -44 -29 -67 -49 -60 -52 -108
-87 -194 -139 -42 -26 -103 -65 -135 -86 -33 -22 -131 -76 -219 -121 -88 -45
-189 -98 -225 -117 -36 -19 -113 -55 -172 -80 l-108 -47 0 36 c0 24 7 40 22
53 22 18 22 18 9 126 -8 60 -15 129 -15 154 -1 32 -6 45 -16 45 -10 0 -14 -8
-12 -25 2 -14 -4 -66 -13 -117 -21 -116 -51 -160 -138 -203 -80 -39 -1194
-411 -1437 -480 -481 -136 -1046 -320 -1186 -386 -102 -48 -148 -92 -191 -179
-27 -54 -27 -55 -8 -70 23 -17 80 -35 112 -35 12 0 46 -9 75 -21 49 -20 64
-21 208 -14 234 12 294 8 375 -22 84 -31 120 -61 151 -128 63 -133 -6 -368
-153 -520 -62 -65 -234 -175 -424 -270 -56 -29 -85 -54 -139 -122 -5 -6 -18
-17 -28 -25 -10 -7 -22 -25 -25 -40 -7 -25 -4 -28 34 -38 33 -9 51 -8 88 3 25
8 62 18 81 22 19 4 40 11 45 15 6 4 46 10 90 13 47 3 111 16 155 32 100 34
113 32 122 -25 23 -154 -15 -365 -93 -522 -16 -31 -57 -87 -90 -123 -66 -70
-116 -98 -404 -226 -176 -79 -198 -95 -231 -178 -21 -53 -8 -89 45 -125 31
-22 42 -24 70 -16 18 5 71 16 118 25 46 9 166 45 265 81 204 75 230 77 272 21
59 -77 55 -200 -11 -334 -81 -167 -256 -321 -510 -451 -163 -82 -225 -95 -553
-112 -107 -6 -262 -14 -345 -20 -82 -5 -316 -7 -520 -4 -739 10 -960 49 -1343
235 -261 127 -356 213 -524 474 -101 158 -193 363 -306 680 -137 386 -183 631
-185 1000 -2 267 9 359 63 532 11 34 20 73 20 86 0 13 9 32 19 41 11 10 23 31
26 46 3 15 15 36 25 45 10 9 22 30 25 46 4 15 22 45 42 66 19 21 41 52 48 68
12 28 36 61 69 95 23 24 86 119 86 129 0 6 6 14 14 18 20 11 126 155 126 170
0 7 4 13 9 13 6 0 35 33 67 73 90 116 186 222 324 362 11 12 20 26 20 32 0 7
8 17 18 22 18 10 92 121 92 138 0 4 8 24 19 43 10 19 24 60 31 90 8 30 17 60
21 65 3 6 12 35 19 65 7 30 22 91 35 135 74 255 89 374 83 653 l-5 227 -47
178 c-41 158 -46 186 -40 243 7 64 8 66 68 119 34 30 65 55 70 55 5 0 32 11
61 24 44 21 71 26 192 31 121 5 141 4 146 -9 4 -9 12 -16 18 -16 13 0 9 26
-20 125 -36 118 -79 343 -92 479 -8 85 -10 220 -7 402 5 239 8 278 24 311 14
27 26 39 44 41 60 7 70 12 70 38 0 14 11 35 25 48 14 13 25 27 25 33 0 12 -81
33 -106 27 -10 -2 -25 0 -33 5 -16 10 -9 62 34 256 14 61 26 126 27 145 3 32
6 35 43 42 62 11 151 9 182 -3 28 -12 215 -41 371 -59 45 -5 87 -12 92 -15 5
-3 33 -6 62 -6 29 0 69 -4 88 -9 115 -27 154 -33 292 -42 184 -12 222 -12 404
-1 122 8 144 11 168 31 16 12 36 22 46 22 10 0 28 9 42 19 13 11 36 23 49 26
14 3 41 24 60 46 19 22 58 67 87 100 28 32 52 68 52 79 0 10 10 28 22 40 17
16 23 34 26 88 2 37 10 74 16 82 7 8 18 34 25 57 6 23 23 56 38 73 38 46 52
25 60 -86 5 -79 9 -92 33 -117 23 -23 31 -26 52 -18 34 13 103 130 123 211 9
35 27 82 40 105 20 36 36 100 48 190 2 17 10 51 17 76 13 45 13 47 -24 107
-33 55 -41 62 -69 62 -18 0 -50 11 -72 23 -40 22 -40 23 -43 89 -3 63 -2 67
20 70 47 8 204 -5 231 -19z m717 17 c0 -5 -4 -10 -10 -10 -5 0 -10 5 -10 10 0
6 5 10 10 10 6 0 10 -4 10 -10z m516 -56 c-9 -24 -50 -35 -57 -15 -8 21 0 41
17 41 7 0 19 10 26 23 13 22 13 22 16 -6 2 -16 1 -35 -2 -43z m2158 26 c50 0
75 -20 51 -40 -12 -10 -27 -10 -72 -1 -67 13 -74 18 -62 49 8 21 10 22 25 8 9
-10 33 -16 58 -16z m141 -33 c8 -8 49 -17 96 -21 51 -4 86 -12 93 -21 6 -7 37
-19 69 -25 48 -10 56 -14 46 -26 -22 -26 -119 -9 -119 22 0 8 -22 12 -74 13
-85 1 -119 13 -135 47 -12 27 1 33 24 11z m-4018 -74 c-3 -10 -5 -4 -5 12 0
17 2 24 5 18 2 -7 2 -21 0 -30z m4383 -18 c0 -8 12 -17 28 -21 15 -3 38 -9 52
-14 l25 -8 -26 -10 c-28 -11 -65 -6 -86 11 -15 11 -17 57 -3 57 6 0 10 -7 10
-15z m165 -85 c4 -6 -5 -10 -19 -10 -14 0 -26 5 -26 10 0 6 9 10 19 10 11 0
23 -4 26 -10z m81 -73 c3 -15 14 -36 25 -45 12 -12 22 -42 28 -83 5 -35 17
-86 25 -114 11 -34 16 -90 16 -176 0 -109 -3 -129 -19 -148 -12 -13 -21 -45
-26 -86 -6 -64 -7 -65 -36 -65 -27 0 -29 2 -29 41 0 52 -55 167 -86 181 -12 6
-28 21 -35 34 -7 15 -21 24 -35 24 -13 0 -27 6 -31 14 -4 7 -36 38 -70 67 -65
57 -129 142 -118 158 8 13 62 28 145 40 117 16 199 86 192 162 -3 23 0 27 22
25 19 -1 27 -8 32 -29z m-7968 -61 c24 -17 58 -43 76 -58 18 -15 51 -38 72
-50 107 -63 154 -115 154 -171 0 -13 9 -36 20 -50 11 -14 20 -35 20 -47 0 -30
18 -60 35 -60 11 0 15 -13 15 -50 0 -44 -3 -51 -27 -63 -16 -8 -40 -17 -55
-21 -23 -5 -28 -14 -39 -64 -10 -51 -9 -73 16 -202 15 -80 35 -183 46 -230 37
-169 59 -404 59 -629 0 -75 5 -181 10 -236 17 -170 15 -205 -15 -268 -32 -69
-73 -102 -157 -129 -167 -52 -258 -45 -310 26 -39 54 -77 128 -94 187 -16 53
-23 456 -9 479 10 17 22 115 34 295 6 77 15 217 22 311 7 94 9 189 5 210 -4
22 -8 211 -7 421 0 329 2 386 16 412 13 27 20 30 43 25 15 -4 46 -21 70 -38z
m6248 -123 c5 -20 0 -41 -21 -79 -25 -45 -34 -53 -79 -67 -46 -15 -56 -15
-103 -1 -29 9 -53 19 -53 24 0 5 -12 20 -26 33 -17 16 -25 32 -22 48 3 21 11
25 78 37 41 8 82 18 90 22 8 5 41 9 72 9 54 1 58 -1 64 -26z m-5809 -135 c-3
-8 -6 -5 -6 6 -1 11 2 17 5 13 3 -3 4 -12 1 -19z m6687 -77 c10 -11 32 -23 48
-26 17 -4 47 -21 67 -39 20 -18 50 -42 66 -54 17 -12 41 -30 54 -40 45 -33
141 -125 141 -135 0 -6 21 -31 48 -58 26 -26 55 -58 64 -71 40 -53 68 -94 79
-115 15 -28 40 -29 64 -3 22 25 62 26 88 3 10 -10 31 -18 45 -18 19 0 28 -6
30 -20 2 -11 10 -27 17 -35 11 -12 11 -18 -1 -34 -8 -11 -14 -31 -14 -46 0
-14 -7 -36 -16 -48 -10 -14 -14 -33 -10 -47 4 -16 -3 -44 -20 -79 -20 -42 -23
-59 -15 -74 8 -15 6 -23 -9 -37 -11 -10 -20 -26 -20 -35 0 -9 -7 -25 -15 -36
-8 -10 -15 -29 -15 -41 0 -12 -5 -25 -11 -28 -6 -4 -23 -25 -39 -47 -65 -90
-142 -116 -367 -125 -110 -4 -113 -5 -119 -29 -6 -23 -9 -24 -93 -22 -47 1
-68 3 -46 5 22 2 56 11 75 20 l35 16 -30 9 c-16 5 -64 11 -105 12 -275 12
-372 20 -435 36 -38 10 -108 21 -155 25 -47 3 -130 15 -185 25 -55 10 -129 24
-165 30 -36 6 -85 15 -110 20 -25 5 -85 14 -133 20 -49 6 -115 19 -148 30 -32
11 -76 20 -97 20 -22 0 -59 9 -83 19 -24 11 -66 22 -94 26 -27 4 -70 15 -95
25 -25 10 -70 22 -100 26 -30 4 -66 15 -79 25 -13 11 -30 19 -38 19 -30 0
-199 88 -232 121 -18 19 -42 53 -52 76 -11 23 -25 43 -31 45 -15 5 -38 155
-28 183 4 11 3 35 -2 53 -17 63 4 261 29 269 15 5 63 -59 63 -84 0 -12 6 -23
14 -26 10 -4 15 5 18 36 3 23 10 62 16 87 7 25 14 57 17 72 7 36 39 27 69 -21
13 -20 49 -63 80 -95 31 -33 59 -71 62 -85 4 -14 20 -52 37 -83 30 -59 48 -69
77 -45 24 19 60 86 60 111 0 12 14 35 31 52 17 16 42 49 55 74 32 62 55 85 88
94 l29 7 -7 -51 c-12 -87 36 -267 100 -376 33 -56 176 -209 225 -239 64 -41
94 -44 290 -29 101 7 187 13 192 14 17 0 5 20 -13 20 -21 0 -70 20 -71 29 0 3
-2 14 -4 24 -2 10 4 21 13 24 17 5 82 34 177 78 57 27 155 62 170 61 62 -6 28
-114 -51 -167 -27 -17 -22 -29 12 -29 20 0 73 29 109 58 6 5 24 17 40 27 40
26 109 94 125 125 7 14 27 48 45 75 37 56 89 245 101 370 6 71 20 95 54 95 9
0 25 -9 34 -19z m3596 -330 c0 -27 4 -61 9 -74 12 -30 69 -67 104 -67 16 0 31
-8 37 -20 6 -10 25 -22 43 -25 36 -7 157 -114 157 -139 0 -7 18 -36 40 -64 34
-42 40 -57 40 -96 0 -37 5 -52 25 -72 20 -20 23 -29 15 -45 -7 -13 -8 -46 -2
-102 5 -45 9 -102 10 -127 0 -25 3 -79 7 -120 4 -48 3 -95 -5 -130 -18 -84
-23 -147 -12 -166 7 -13 11 0 17 54 4 40 11 72 15 72 23 0 75 -30 85 -50 14
-26 58 -77 158 -183 38 -39 75 -84 83 -99 23 -45 57 -91 94 -128 34 -34 100
-133 100 -149 0 -5 9 -15 19 -22 17 -12 64 -96 157 -280 13 -26 31 -52 39 -59
8 -7 15 -23 15 -37 0 -13 11 -34 23 -46 15 -14 26 -38 29 -64 4 -23 15 -54 27
-69 12 -15 21 -34 21 -43 0 -9 9 -29 20 -46 11 -16 20 -44 20 -60 0 -17 10
-49 21 -70 20 -38 31 -78 45 -170 4 -22 12 -46 18 -54 5 -7 11 -27 13 -45 9
-122 17 -173 30 -188 13 -14 14 -53 9 -250 -3 -128 -6 -240 -7 -248 0 -8 2
-49 5 -90 3 -41 3 -89 0 -107 l-6 -31 -21 21 c-21 21 -22 21 -25 2 -9 -44 -83
-225 -107 -260 -14 -21 -25 -43 -25 -50 0 -7 -78 -91 -172 -187 -165 -166
-296 -273 -413 -337 -22 -12 -57 -32 -77 -44 -155 -93 -303 -155 -446 -188
-52 -12 -154 -24 -251 -29 -140 -7 -181 -6 -286 10 -67 11 -149 28 -181 39
-33 11 -79 25 -104 31 -25 7 -52 17 -60 24 -8 7 -46 28 -85 47 -87 42 -215
147 -296 242 -34 40 -74 86 -89 104 -15 17 -33 45 -39 62 -7 16 -21 37 -32 47
-10 9 -19 22 -19 27 0 6 -6 18 -14 26 -17 21 -56 150 -56 189 0 43 15 79 39
91 11 6 53 13 93 15 40 2 91 11 113 19 22 8 83 18 135 22 52 4 115 15 140 25
25 9 92 32 150 50 58 18 128 44 155 57 66 33 192 157 201 197 3 17 16 41 28
54 19 21 21 38 25 149 4 151 -15 240 -60 288 -33 35 -42 105 -14 105 8 0 19
17 25 40 6 23 25 64 41 92 17 28 46 91 65 139 20 48 46 99 59 113 13 14 26 38
30 55 3 16 13 35 21 42 8 6 14 16 14 22 0 5 11 20 25 33 14 13 25 32 25 43 0
11 20 45 45 75 24 30 47 68 51 83 4 15 15 36 25 46 11 10 19 30 19 45 0 20 13
41 45 73 34 34 45 51 45 76 0 22 6 36 20 43 14 7 20 21 20 44 0 20 8 40 20 51
34 31 23 59 -18 48 -13 -3 -25 -19 -33 -42 -6 -20 -17 -43 -24 -51 -7 -8 -29
-46 -50 -85 -20 -38 -54 -97 -75 -130 -22 -33 -53 -85 -71 -115 -18 -30 -46
-74 -63 -96 -17 -23 -43 -61 -59 -85 -15 -24 -41 -62 -57 -84 -17 -22 -41 -56
-54 -75 -23 -35 -124 -158 -161 -196 -11 -11 -50 -55 -88 -97 -79 -89 -310
-275 -377 -303 -8 -3 -43 -19 -77 -34 -113 -51 -284 -70 -323 -35 -9 8 -22 15
-28 15 -20 0 -149 137 -171 182 -49 102 -23 179 139 403 28 39 82 135 121 215
201 414 315 632 358 686 11 15 21 31 21 36 0 5 33 59 74 121 40 62 78 121 84
133 20 39 87 113 181 198 138 128 294 198 510 230 109 17 226 67 245 105 30
59 47 130 37 149 -6 11 -41 39 -78 63 l-67 44 -126 -2 c-109 -1 -138 -5 -223
-32 -118 -37 -215 -86 -317 -159 -88 -63 -222 -190 -255 -241 -12 -20 -46 -58
-76 -86 -29 -27 -71 -67 -92 -87 -59 -57 -72 -51 -102 40 -18 56 -16 92 10
232 8 41 18 95 22 119 7 39 12 45 48 60 22 9 53 25 68 35 56 38 192 221 222
297 9 23 38 61 110 142 8 9 26 17 40 17 18 0 28 7 35 25 5 14 14 25 19 25 6 0
22 11 37 25 22 21 37 25 85 25 52 0 59 2 59 20 0 10 -7 23 -16 28 -25 14 1 26
56 24 43 -1 51 3 91 44 26 27 52 44 66 44 21 0 23 -5 23 -49z m3593 -274 c98
-29 143 -54 189 -106 58 -65 76 -103 99 -215 18 -87 19 -165 19 -1796 0 -1631
-1 -1709 -19 -1796 -23 -112 -41 -150 -99 -215 -46 -52 -92 -77 -189 -106 -52
-16 -131 -18 -758 -21 -690 -3 -802 0 -877 30 -16 6 -28 14 -28 19 0 5 -9 9
-20 9 -11 0 -19 3 -17 8 1 4 -8 18 -20 31 -12 13 -20 28 -17 33 3 4 -1 8 -9 8
-11 0 -14 10 -11 35 2 20 -2 35 -8 35 -6 0 -8 11 -6 25 3 14 2 25 -3 25 -4 0
-3 16 3 36 14 51 18 74 23 114 2 19 17 87 34 151 54 211 65 315 65 614 0 280
-6 348 -54 582 -27 131 -84 328 -126 435 -19 48 -34 90 -34 93 0 4 -10 27 -21
53 -12 26 -35 76 -51 112 -89 197 -185 365 -374 650 -174 265 -237 376 -297
525 -40 98 -78 222 -82 262 -2 21 -8 59 -13 86 -5 26 -6 47 -2 47 4 0 5 11 2
25 -2 14 0 25 6 25 6 0 10 15 8 35 -3 25 0 35 11 35 8 0 12 4 8 9 -3 5 -1 12
5 16 6 4 8 11 5 16 -4 5 1 9 10 9 8 0 18 7 21 15 4 8 15 15 25 15 10 0 19 4
19 9 0 13 26 22 100 36 50 10 331 13 1245 11 1090 -1 1184 -3 1238 -19z
m-14193 -1840 c0 -8 9 -24 20 -37 13 -15 20 -37 20 -67 0 -46 -14 -58 -25 -20
-4 12 -25 48 -47 80 l-39 57 35 0 c24 0 36 -5 36 -13z"/>
<path d="M9212 15645 c0 -16 2 -22 5 -12 2 9 2 23 0 30 -3 6 -5 -1 -5 -18z"/>
<path d="M9158 15484 c-2 -20 -2 -50 0 -68 4 -27 6 -28 13 -11 11 28 11 103 0
109 -5 3 -11 -10 -13 -30z"/>
<path d="M9110 15254 c0 -41 4 -63 10 -59 6 3 10 33 10 66 0 33 -4 59 -10 59
-6 0 -10 -29 -10 -66z"/>
<path d="M9067 15096 c-5 -21 -6 -41 -3 -44 12 -11 17 7 14 44 l-3 39 -8 -39z"/>
<path d="M9022 14930 c0 -14 2 -19 5 -12 2 6 2 18 0 25 -3 6 -5 1 -5 -13z"/>
<path d="M15593 13005 c0 -33 2 -45 4 -27 2 18 2 45 0 60 -2 15 -4 0 -4 -33z"/>
<path d="M15637 12866 c-9 -22 -9 -163 -1 -194 4 -13 12 -21 18 -19 12 4 10
157 -3 205 -6 22 -8 24 -14 8z"/>
<path d="M8450 9974 c0 -8 5 -12 10 -9 6 4 8 11 5 16 -9 14 -15 11 -15 -7z"/>
<path d="M8205 9410 c-3 -5 1 -10 10 -10 9 0 13 5 10 10 -3 6 -8 10 -10 10 -2
0 -7 -4 -10 -10z"/>
<path d="M8108 9348 c9 -9 15 -9 24 0 9 9 7 12 -12 12 -19 0 -21 -3 -12 -12z"/>
<path d="M8210 9120 c0 -5 11 -10 24 -10 14 0 28 5 31 10 4 6 -7 10 -24 10
-17 0 -31 -4 -31 -10z"/>
<path d="M8110 9019 c0 -5 5 -7 10 -4 6 3 10 8 10 11 0 2 -4 4 -10 4 -5 0 -10
-5 -10 -11z"/>
<path d="M8065 8979 c-10 -15 3 -25 16 -12 7 7 7 13 1 17 -6 3 -14 1 -17 -5z"/>
<path d="M8016 8883 c-3 -3 -6 -17 -6 -30 0 -16 -8 -27 -25 -33 -27 -10 -30
-18 -45 -140 -18 -149 15 -321 81 -416 53 -78 166 -160 324 -237 91 -45 201
-87 224 -87 10 0 43 -9 74 -19 87 -30 382 -54 504 -40 270 29 404 99 514 267
74 113 92 169 93 289 1 99 0 102 -28 132 -17 17 -33 31 -37 31 -14 0 -92 -87
-145 -161 -93 -132 -151 -167 -303 -181 -176 -17 -464 16 -686 79 -168 48
-405 167 -460 232 -39 45 -69 158 -63 240 5 66 0 90 -16 74z"/>
<path d="M12820 8310 c0 -5 5 -10 10 -10 6 0 10 5 10 10 0 6 -4 10 -10 10 -5
0 -10 -4 -10 -10z"/>
<path d="M12762 8282 c-13 -2 -39 -14 -57 -27 -20 -13 -58 -26 -91 -30 l-57
-7 42 -24 c22 -14 41 -29 41 -33 0 -15 48 -21 91 -12 23 5 53 21 67 34 l25 25
-19 39 c-15 30 -24 37 -42 35z"/>
<path d="M12535 8120 c-4 -6 5 -10 20 -10 15 0 24 4 20 10 -3 6 -12 10 -20 10
-8 0 -17 -4 -20 -10z"/>
<path d="M12626 8081 c-3 -5 0 -11 7 -13 17 -7 38 2 31 13 -7 12 -31 12 -38 0z"/>
<path d="M6385 7690 c3 -5 10 -10 16 -10 5 0 9 5 9 10 0 6 -7 10 -16 10 -8 0
-12 -4 -9 -10z"/>
<path d="M6580 7503 c1 -18 18 -35 24 -24 4 6 4 16 1 21 -7 12 -25 13 -25 3z"/>
<path d="M6617 7464 c-3 -3 12 -40 33 -83 21 -42 52 -119 68 -171 58 -183 64
-306 23 -455 -63 -224 -120 -525 -127 -665 -6 -117 -4 -130 21 -205 14 -44 39
-100 55 -125 57 -88 253 -260 298 -260 14 0 46 -7 69 -16 38 -15 66 -16 251
-6 114 5 230 15 257 20 28 6 97 18 155 27 57 8 108 19 113 24 5 5 -13 33 -42
64 -27 31 -58 69 -68 84 -9 15 -35 52 -57 81 -21 29 -74 112 -117 185 -165
282 -169 287 -426 548 l-243 246 0 45 c0 32 5 48 15 52 21 8 19 30 -5 51 -17
15 -20 31 -20 96 0 69 -3 81 -26 109 -18 20 -28 47 -32 78 -2 26 -12 56 -22
67 -10 11 -21 31 -25 45 -12 39 -66 119 -85 125 -10 3 -20 15 -23 25 -5 19
-27 27 -40 14z"/>
<path d="M7703 7318 c-16 -8 -23 -20 -23 -40 0 -37 26 -47 149 -55 68 -4 99
-11 107 -21 12 -17 88 -30 178 -31 40 -1 65 -6 77 -17 19 -17 122 -33 217 -34
28 0 52 -4 52 -10 0 -13 62 -28 155 -35 44 -4 114 -15 155 -25 41 -10 109 -21
149 -25 41 -3 89 -13 105 -21 17 -9 67 -18 111 -21 50 -4 86 -11 97 -21 11 -9
55 -19 119 -25 76 -8 107 -15 121 -29 12 -12 33 -18 62 -18 26 0 66 -10 98
-25 29 -14 64 -25 77 -25 13 0 38 -9 55 -19 17 -11 49 -23 71 -26 22 -4 47
-13 55 -20 17 -15 129 -45 166 -45 33 0 30 15 -5 30 -16 6 -31 19 -34 29 -5
22 -303 170 -417 207 -47 15 -113 38 -147 51 -34 13 -67 23 -74 23 -7 0 -71
20 -143 44 -348 116 -481 143 -986 196 -204 22 -510 26 -547 8z"/>
<path d="M8223 6923 c9 -2 23 -2 30 0 6 3 -1 5 -18 5 -16 0 -22 -2 -12 -5z"/>
<path d="M9916 9794 c-4 -14 -3 -53 1 -87 l7 -62 7 40 c11 56 11 123 0 129 -5
3 -12 -6 -15 -20z"/>
<path d="M16156 8525 c-4 -14 -2 -33 3 -43 8 -14 10 -12 16 13 4 17 8 36 11
43 2 6 -3 12 -10 12 -8 0 -17 -11 -20 -25z"/>
<path d="M16116 8394 c-9 -24 -7 -56 3 -50 11 7 20 66 10 66 -4 0 -10 -7 -13
-16z"/>
<path d="M16067 8283 c-8 -8 -9 -53 -2 -53 3 0 17 8 31 17 25 16 25 17 8 30
-20 15 -28 16 -37 6z"/>
</g>
</svg>
